<?xml version="1.0" standalone="no"?>
<!DOCTYPE svg PUBLIC "-//W3C//DTD SVG 20010904//EN"
 "http://www.w3.org/TR/2001/REC-SVG-20010904/DTD/svg10.dtd">
<svg version="1.0" xmlns="http://www.w3.org/2000/svg"
 width="512.000000pt" height="512.000000pt" viewBox="0 0 512.000000 512.000000"
 preserveAspectRatio="xMidYMid meet">
<metadata>
Created by potrace 1.11, written by Peter Selinger 2001-2013
</metadata>
<g transform="translate(0.000000,512.000000) scale(0.100000,-0.100000)"
fill="#000000" stroke="none">
<path d="M250 2560 l0 -2310 2310 0 2310 0 0 2310 0 2310 -2310 0 -2310 0 0
-2310z m1104 388 c253 -445 462 -808 465 -808 4 0 215 365 471 810 l464 810
123 0 123 0 -2 -1192 -3 -1193 -117 -3 -118 -3 -2 969 -3 968 -428 -748 -429
-748 -76 0 -77 0 -430 750 -430 749 -3 -970 -2 -970 -118 3 -117 3 -3 1193 -2
1193 127 -3 126 -3 461 -807z m3123 85 c-6 -746 -13 -913 -51 -1090 -39 -183
-96 -303 -191 -399 -88 -89 -179 -136 -320 -165 -143 -30 -369 -23 -500 16
-116 34 -248 103 -239 125 3 8 17 46 30 85 13 38 28 73 33 78 5 5 27 -1 53
-16 110 -64 331 -107 468 -92 247 26 366 132 429 377 37 145 43 270 48 1051
l5 757 120 0 121 0 -6 -727z"/>
</g>
</svg>
