<svg id="Blog" xmlns="http://www.w3.org/2000/svg" width="62.5" height="50" viewBox="0 0 62.5 50">
  <path id="Path_1" data-name="Path 1" d="M12,17.953A1.953,1.953,0,0,1,13.953,16H28.8a1.953,1.953,0,0,1,0,3.906H13.953A1.953,1.953,0,0,1,12,17.953Z" transform="translate(0.5 -3.5)" />
  <path id="Path_2" data-name="Path 2" d="M13.953,22.5a1.953,1.953,0,0,0,0,3.906H41.3a1.953,1.953,0,0,0,0-3.906Z" transform="translate(0.5 0.156)" />
  <path id="Path_3" data-name="Path 3" d="M13.953,29a1.953,1.953,0,0,0,0,3.906H35.047a1.953,1.953,0,0,0,0-3.906Z" transform="translate(0.5 3.813)" />
  <path id="Path_4" data-name="Path 4" d="M11.422,8A7.422,7.422,0,0,0,4,15.422V50.578A7.422,7.422,0,0,0,11.422,58H59.078A7.422,7.422,0,0,0,66.5,50.578V15.422A7.422,7.422,0,0,0,59.078,8ZM7.906,15.422a3.516,3.516,0,0,1,3.516-3.516H59.078a3.516,3.516,0,0,1,3.516,3.516V50.578a3.516,3.516,0,0,1-3.516,3.516H11.422a3.516,3.516,0,0,1-3.516-3.516Z" transform="translate(-4 -8)" />
</svg>
