<svg id="Contact" xmlns="http://www.w3.org/2000/svg" width="52.607" height="50" viewBox="0 0 52.607 50">
  <g id="ic_fluent_person_feedback_24_regular">
    <path id="_-Color" data-name="🎨-Color" d="M25.015,33.564a5.918,5.918,0,0,1,5.918,5.918v3.951l-.021.285C30.1,49.311,25.072,52,16.643,52c-8.4,0-13.5-2.658-14.6-8.187L2,43.428V39.482a5.918,5.918,0,0,1,5.918-5.918Zm0,3.945H7.918a1.973,1.973,0,0,0-1.973,1.973v3.736c.736,3.157,4.079,4.836,10.7,4.836s9.811-1.661,10.346-4.776v-3.8A1.973,1.973,0,0,0,25.015,37.509ZM16.467,12.521a9.206,9.206,0,1,1-9.206,9.206A9.206,9.206,0,0,1,16.467,12.521ZM48.688,2a5.918,5.918,0,0,1,5.918,5.918v9.206a5.918,5.918,0,0,1-5.918,5.918H44.862l-5.7,5.633a3.288,3.288,0,0,1-5.6-2.338l0-3.331A5.919,5.919,0,0,1,28.3,17.124V7.918A5.918,5.918,0,0,1,34.222,2ZM16.467,16.467a5.261,5.261,0,1,0,5.261,5.261A5.261,5.261,0,0,0,16.467,16.467ZM48.688,5.945H34.222a1.973,1.973,0,0,0-1.973,1.973v9.206A1.973,1.973,0,0,0,34.222,19.1h3.284l0,5.665L43.241,19.1h5.448a1.973,1.973,0,0,0,1.973-1.973V7.918A1.973,1.973,0,0,0,48.688,5.945Z" transform="translate(-2 -2)" />
  </g>
</svg>
