<svg xmlns="http://www.w3.org/2000/svg" width="24" height="24" viewBox="0 0 24 24">
  <path id="copyright" d="M22.739,19.188v1.7a1.979,1.979,0,0,1-.57,1.391,3.789,3.789,0,0,1-1.469.945,10.74,10.74,0,0,1-1.844.508,10.257,10.257,0,0,1-1.836.172,7.223,7.223,0,0,1-5.352-2.172A7.38,7.38,0,0,1,9.52,16.329a7.261,7.261,0,0,1,7.422-7.422,11.026,11.026,0,0,1,1.18.07,10.082,10.082,0,0,1,1.453.281,7.453,7.453,0,0,1,1.445.531,3.112,3.112,0,0,1,1.078.883,2.008,2.008,0,0,1,.438,1.266v1.7a.221.221,0,0,1-.25.25H20.442a.221.221,0,0,1-.25-.25V12.548q0-.672-1.023-1.055a6.082,6.082,0,0,0-2.148-.383,4.747,4.747,0,0,0-3.57,1.43,5.114,5.114,0,0,0-1.383,3.711,5.5,5.5,0,0,0,1.43,3.9,4.76,4.76,0,0,0,3.648,1.539,6.62,6.62,0,0,0,2.156-.375q1.094-.375,1.094-1.031V19.188a.243.243,0,0,1,.07-.18.225.225,0,0,1,.164-.07h1.859a.251.251,0,0,1,.172.07.231.231,0,0,1,.078.18ZM16.77,6.407a9.72,9.72,0,0,0-3.883.8,9.862,9.862,0,0,0-5.32,5.32,9.858,9.858,0,0,0,0,7.766,9.862,9.862,0,0,0,5.32,5.32,9.858,9.858,0,0,0,7.766,0,9.862,9.862,0,0,0,5.32-5.32,9.858,9.858,0,0,0,0-7.766,9.862,9.862,0,0,0-5.32-5.32,9.72,9.72,0,0,0-3.883-.8Zm12,10A11.739,11.739,0,0,1,27.16,22.43,11.946,11.946,0,0,1,22.793,26.8a11.739,11.739,0,0,1-6.023,1.609A11.739,11.739,0,0,1,10.746,26.8,11.946,11.946,0,0,1,6.379,22.43,11.739,11.739,0,0,1,4.77,16.407a11.739,11.739,0,0,1,1.609-6.023,11.946,11.946,0,0,1,4.367-4.367A11.739,11.739,0,0,1,16.77,4.407a11.739,11.739,0,0,1,6.023,1.609,11.946,11.946,0,0,1,4.367,4.367A11.739,11.739,0,0,1,28.77,16.407Z" transform="translate(-4.77 -4.407)"/>
</svg>
