<svg xmlns="http://www.w3.org/2000/svg" width="52.941" height="50" viewBox="0 0 52.941 50">
  <path id="Work" d="M23.279,6a1.838,1.838,0,0,0-1.838,1.838v9.926h-6.25A9.191,9.191,0,0,0,6,26.956V46.809A9.191,9.191,0,0,0,15.191,56H49.75a9.191,9.191,0,0,0,9.191-9.191V26.956a9.191,9.191,0,0,0-9.191-9.191H43.5V7.838A1.838,1.838,0,0,0,41.662,6ZM39.824,17.765H25.118V9.676H39.824ZM9.676,26.956a5.515,5.515,0,0,1,5.515-5.515H49.75a5.515,5.515,0,0,1,5.515,5.515V46.809a5.515,5.515,0,0,1-5.515,5.515H15.191a5.515,5.515,0,0,1-5.515-5.515Z" transform="translate(-6 -6)" />
</svg>
