<?xml version="1.0" encoding="UTF-8" standalone="no"?>
<!DOCTYPE svg PUBLIC "-//W3C//DTD SVG 1.1//EN" "http://www.w3.org/Graphics/SVG/1.1/DTD/svg11.dtd">
<svg width="100%" height="100%" viewBox="0 0 128 128" version="1.1" xmlns="http://www.w3.org/2000/svg" xmlns:xlink="http://www.w3.org/1999/xlink" xml:space="preserve" xmlns:serif="http://www.serif.com/" style="fill-rule:evenodd;clip-rule:evenodd;stroke-linejoin:round;stroke-miterlimit:2;">
    <g id="Border" transform="matrix(3.06226,0,0,3.78365,-96.6226,-147.077)">
        <path d="M73.352,38.872L31.553,38.872L31.553,72.701L73.352,72.701L73.352,38.872ZM71.327,40.51L71.327,71.063C71.327,71.063 33.577,71.063 33.577,71.063C33.577,71.063 33.577,40.51 33.577,40.51L71.327,40.51Z" style="fill:white;"/>
    </g>
    <g id="Text" transform="matrix(1,0,0,1,45.5457,43.7779)">
        <g transform="matrix(84,0,0,84,-36.8597,49.8321)">
            <path d="M0.718,-0L0.718,-0.578L0.461,-0.129L0.417,-0.129L0.159,-0.578L0.159,-0L0.089,-0L0.089,-0.71L0.161,-0.71L0.438,-0.224L0.717,-0.71L0.788,-0.71L0.788,-0L0.718,-0Z" style="fill:white;fill-rule:nonzero;"/>
        </g>
        <g transform="matrix(84,0,0,84,32.6083,49.8321)">
            <path d="M0.034,-0.095C0.048,-0.085 0.067,-0.076 0.09,-0.069C0.113,-0.062 0.139,-0.058 0.169,-0.058C0.204,-0.058 0.232,-0.064 0.253,-0.075C0.274,-0.087 0.291,-0.104 0.302,-0.128C0.313,-0.151 0.321,-0.181 0.325,-0.216C0.329,-0.251 0.331,-0.292 0.331,-0.338L0.331,-0.71L0.401,-0.71L0.401,-0.352C0.401,-0.299 0.398,-0.251 0.393,-0.207C0.388,-0.164 0.377,-0.126 0.362,-0.094C0.347,-0.062 0.324,-0.038 0.293,-0.021C0.262,-0.004 0.222,0.005 0.171,0.005C0.138,0.005 0.109,0.001 0.084,-0.006C0.059,-0.013 0.035,-0.024 0.014,-0.039L0.034,-0.095Z" style="fill:white;fill-rule:nonzero;"/>
        </g>
    </g>
</svg>
