<svg id="git" xmlns="http://www.w3.org/2000/svg" width="17.78" height="24" viewBox="0 0 17.78 24">
  <path id="Icon_ionic-ios-git-branch" data-name="Icon ionic-ios-git-branch" d="M20.364,5.679a3.748,3.748,0,0,0-.755,7.42,2.893,2.893,0,0,1-1.446,2.261,7.911,7.911,0,0,1-3.5,1.254,6.061,6.061,0,0,0-3.884,2.143V9.686a3.748,3.748,0,1,0-1.5-.021v9.177a3.772,3.772,0,0,0-2.02,1.195,3.746,3.746,0,1,0,4.923-.637,4.668,4.668,0,0,1,2.738-1.307,9.292,9.292,0,0,0,4.146-1.543A4.375,4.375,0,0,0,21.1,13.1a3.75,3.75,0,0,0-.739-7.425ZM7.828,6a2.25,2.25,0,1,1,2.25,2.25A2.25,2.25,0,0,1,7.828,6Zm4.5,16.5a2.25,2.25,0,1,1-2.25-2.25A2.25,2.25,0,0,1,12.328,22.5Zm8.036-10.821a2.25,2.25,0,1,1,2.25-2.25A2.25,2.25,0,0,1,20.364,11.679Z" transform="translate(-6.328 -2.25)" fill="#757b82"/>
</svg>
