<svg xmlns="http://www.w3.org/2000/svg" width="44.737" height="50" viewBox="0 0 44.737 50">
  <path id="home" d="M26.219,6.125a4.971,4.971,0,0,1,6.3,0L49.854,20.259a5.145,5.145,0,0,1,1.883,3.989V49.886A5.074,5.074,0,0,1,46.7,55H39.993a5.074,5.074,0,0,1-5.033-5.114V37.565a1.691,1.691,0,0,0-1.678-1.7H25.454a1.691,1.691,0,0,0-1.678,1.7V49.886A5.074,5.074,0,0,1,18.743,55H12.033A5.074,5.074,0,0,1,7,49.886V24.247a5.145,5.145,0,0,1,1.883-3.989Zm4.2,2.659a1.657,1.657,0,0,0-2.1,0L10.983,22.918a1.715,1.715,0,0,0-.628,1.33V49.886a1.691,1.691,0,0,0,1.678,1.7h6.711a1.691,1.691,0,0,0,1.678-1.7V37.565a5.074,5.074,0,0,1,5.033-5.114h7.829a5.074,5.074,0,0,1,5.033,5.114V49.886a1.691,1.691,0,0,0,1.678,1.7H46.7a1.691,1.691,0,0,0,1.678-1.7V24.247a1.715,1.715,0,0,0-.628-1.33Z" transform="translate(-7 -5)" />
</svg>
