<svg id="Settings" xmlns="http://www.w3.org/2000/svg" width="47.917" height="50" viewBox="0 0 47.917 50">
  <path id="Path_5" data-name="Path 5" d="M18.875,9.5a9.365,9.365,0,1,0,8.964,6.622A9.375,9.375,0,0,0,18.875,9.5Zm-6.25,9.375a6.25,6.25,0,1,1,6.25,6.25A6.25,6.25,0,0,1,12.625,18.875Z" transform="translate(5.083 6.125)" />
  <path id="Path_6" data-name="Path 6" d="M42.519,44.489l-3.6-1.58a3.585,3.585,0,0,0-3.212.178,3.511,3.511,0,0,0-1.717,2.676l-.433,3.914a1.922,1.922,0,0,1-1.464,1.659,24.313,24.313,0,0,1-11.275,0,1.922,1.922,0,0,1-1.464-1.659l-.432-3.909A3.536,3.536,0,0,0,14,42.922L10.4,44.5a1.917,1.917,0,0,1-2.172-.448A25.136,25.136,0,0,1,2.586,34.32a1.925,1.925,0,0,1,.7-2.117l3.182-2.349a3.545,3.545,0,0,0,0-5.708L3.282,21.8a1.925,1.925,0,0,1-.7-2.119A25.122,25.122,0,0,1,8.229,9.961,1.917,1.917,0,0,1,10.4,9.514l3.584,1.577A3.515,3.515,0,0,0,17.18,10.9a3.556,3.556,0,0,0,1.746-2.68l.435-3.912a1.922,1.922,0,0,1,1.491-1.664A27.244,27.244,0,0,1,26.486,2a27.031,27.031,0,0,1,5.583.649,1.922,1.922,0,0,1,1.49,1.664l.436,3.915a3.544,3.544,0,0,0,3.518,3.161,3.47,3.47,0,0,0,1.414-.3L42.51,9.512a1.917,1.917,0,0,1,2.173.446,25.118,25.118,0,0,1,5.642,9.723,1.925,1.925,0,0,1-.694,2.118l-3.177,2.346a3.527,3.527,0,0,0,0,5.709l3.18,2.347a1.925,1.925,0,0,1,.695,2.118,25.134,25.134,0,0,1-5.639,9.722A1.917,1.917,0,0,1,42.519,44.489Zm-11.346-.413a6.587,6.587,0,0,1,2.97-3.693,6.709,6.709,0,0,1,6.033-.336l2.8,1.229a22.009,22.009,0,0,0,4.1-7.078L44.6,32.37h0a6.652,6.652,0,0,1,0-10.738l0,0L47.074,19.8a22,22,0,0,0-4.106-7.078l-2.776,1.222,0,0a6.6,6.6,0,0,1-2.679.565,6.671,6.671,0,0,1-6.62-5.942v0l-.338-3.041a23.908,23.908,0,0,0-4.064-.4,24.2,24.2,0,0,0-4.115.4l-.339,3.044a6.675,6.675,0,0,1-9.305,5.38L9.943,12.727A22,22,0,0,0,5.837,19.8l2.479,1.828a6.67,6.67,0,0,1,0,10.738L5.837,34.2a22.01,22.01,0,0,0,4.105,7.088l2.8-1.23a6.661,6.661,0,0,1,9.284,5.358v.009l.337,3.051a21.191,21.191,0,0,0,8.18,0l.338-3.056A6.813,6.813,0,0,1,31.173,44.076Z" transform="translate(-2.5 -2)" />
</svg>
