<?xml version="1.0" encoding="UTF-8" standalone="no"?>
<!DOCTYPE svg PUBLIC "-//W3C//DTD SVG 1.1//EN" "http://www.w3.org/Graphics/SVG/1.1/DTD/svg11.dtd">
<svg width="100%" height="100%" viewBox="0 0 24 24" version="1.1" xmlns="http://www.w3.org/2000/svg" xmlns:xlink="http://www.w3.org/1999/xlink" xml:space="preserve" xmlns:serif="http://www.serif.com/" style="fill-rule:evenodd;clip-rule:evenodd;stroke-linejoin:round;stroke-miterlimit:2;">
    <path d="M1.175,12.225C1.124,12.225 1.081,12.271 1.074,12.325L0.841,14.479L1.074,16.584C1.081,16.642 1.124,16.682 1.175,16.682C1.225,16.682 1.265,16.642 1.274,16.584L1.529,14.479L1.259,12.325C1.259,12.268 1.214,12.225 1.169,12.225M0.27,13.053C0.21,13.053 0.179,13.09 0.166,13.147L0,14.479L0.165,15.787C0.165,15.842 0.21,15.881 0.255,15.881C0.3,15.881 0.344,15.836 0.359,15.777L0.569,14.458L0.359,13.124C0.359,13.063 0.315,13.034 0.269,13.034M2.099,11.805C2.038,11.805 1.979,11.85 1.979,11.909L1.769,14.472L1.994,16.93C1.994,16.99 2.039,17.05 2.113,17.05C2.174,17.05 2.218,16.989 2.234,16.93L2.488,14.456L2.234,11.908C2.218,11.848 2.173,11.788 2.113,11.788M3.058,11.699C2.983,11.699 2.923,11.759 2.908,11.834L2.715,14.474L2.925,17.018C2.941,17.095 3,17.156 3.074,17.156C3.149,17.156 3.209,17.095 3.224,17.006L3.464,14.474L3.224,11.851C3.224,11.776 3.164,11.716 3.089,11.716L3.058,11.699ZM4.213,12.059C4.208,11.969 4.138,11.91 4.054,11.91C3.964,11.91 3.896,11.97 3.89,12.059L3.673,14.489L3.873,17.052C3.873,17.142 3.948,17.209 4.032,17.209C4.106,17.209 4.18,17.141 4.18,17.051L4.407,14.488L4.18,12.044L4.213,12.059ZM5.022,10.35C4.921,10.35 4.842,10.44 4.842,10.531L4.632,14.488L4.819,17.051C4.819,17.141 4.899,17.215 4.999,17.215C5.093,17.215 5.173,17.125 5.179,17.035L5.388,14.472L5.179,10.5C5.171,10.396 5.091,10.32 4.999,10.32M5.958,9.406C5.853,9.406 5.763,9.496 5.755,9.6L5.575,14.472L5.74,17.02C5.74,17.14 5.83,17.229 5.935,17.229C6.039,17.229 6.129,17.14 6.145,17.02L6.338,14.472L6.146,9.616C6.13,9.496 6.041,9.406 5.936,9.406M6.925,8.957C6.804,8.957 6.714,9.046 6.7,9.166L6.535,14.441L6.7,16.961C6.714,17.08 6.804,17.186 6.925,17.186C7.044,17.186 7.15,17.081 7.15,16.961L7.345,14.441L7.149,9.166C7.149,9.046 7.044,8.941 6.924,8.941M8.169,8.986C8.169,8.851 8.064,8.746 7.929,8.746C7.81,8.746 7.689,8.851 7.689,8.986L7.54,14.427L7.689,16.93C7.705,17.065 7.81,17.17 7.945,17.17C8.08,17.17 8.185,17.065 8.185,16.93L8.349,14.427L8.185,8.971L8.169,8.986ZM8.918,8.852C8.783,8.852 8.663,8.971 8.663,9.106L8.513,14.428L8.663,16.901C8.663,17.051 8.783,17.156 8.918,17.156C9.053,17.156 9.173,17.036 9.173,16.886L9.323,14.412L9.158,9.105C9.158,8.957 9.038,8.835 8.887,8.835M9.892,9.001C9.728,9.001 9.608,9.136 9.608,9.286L9.505,14.429L9.64,16.903C9.64,17.052 9.759,17.18 9.924,17.18C10.073,17.18 10.195,17.06 10.208,16.895L10.329,14.452L10.194,9.34C10.182,9.176 10.059,9.055 9.909,9.055M11.093,8.11C11.048,8.081 10.988,8.066 10.928,8.066C10.868,8.066 10.809,8.081 10.763,8.11C10.673,8.164 10.614,8.26 10.614,8.365L10.614,8.426L10.51,14.474L10.625,16.923L10.625,16.931C10.633,16.991 10.655,17.066 10.699,17.111C10.757,17.172 10.841,17.215 10.933,17.215C11.013,17.215 11.091,17.171 11.142,17.125C11.2,17.065 11.233,16.99 11.233,16.9L11.248,16.66L11.365,14.457L11.23,8.371C11.23,8.267 11.169,8.178 11.095,8.132L11.093,8.11ZM12.099,7.563C12.054,7.518 12.009,7.502 11.949,7.502C11.875,7.502 11.8,7.518 11.74,7.563C11.665,7.624 11.621,7.713 11.621,7.803L11.621,7.832L11.484,14.441L11.56,15.656L11.621,16.841C11.621,17.005 11.769,17.155 11.949,17.155C12.13,17.155 12.279,17.005 12.279,16.826L12.429,14.412L12.279,7.775C12.279,7.655 12.205,7.554 12.114,7.498M21.048,11.275C20.643,11.275 20.253,11.361 19.909,11.507C19.669,8.853 17.449,6.771 14.721,6.771C14.062,6.771 13.416,6.906 12.832,7.13C12.607,7.22 12.562,7.31 12.547,7.489L12.547,16.857C12.563,17.037 12.697,17.187 12.877,17.202L21.062,17.202C22.681,17.218 24,15.914 24,14.28C24,12.646 22.681,11.328 21.062,11.328" style="fill:white;fill-rule:nonzero;"/>
</svg>
