<svg id="Stack" xmlns="http://www.w3.org/2000/svg" width="49.985" height="50" viewBox="0 0 49.985 50">
  <g id="ic_fluent_glance_24_regular">
    <path id="_Color" data-name="🎨Color" d="M48.128,25.225a4.861,4.861,0,0,1,4.861,4.861V48.139A4.861,4.861,0,0,1,48.128,53h-12.5a4.861,4.861,0,0,1-4.861-4.861V30.086a4.861,4.861,0,0,1,4.861-4.861ZM20.4,36.369a4.861,4.861,0,0,1,4.861,4.861v6.909A4.861,4.861,0,0,1,20.4,53H7.864A4.861,4.861,0,0,1,3,48.139V41.23a4.861,4.861,0,0,1,4.861-4.861Zm27.725-6.978h-12.5a.694.694,0,0,0-.694.694V48.139a.694.694,0,0,0,.694.694h12.5a.694.694,0,0,0,.694-.694V30.086A.694.694,0,0,0,48.128,29.391ZM20.4,40.536H7.864a.694.694,0,0,0-.694.694v6.909a.694.694,0,0,0,.694.694H20.4a.694.694,0,0,0,.694-.694V41.23A.694.694,0,0,0,20.4,40.536ZM20.363,3a4.861,4.861,0,0,1,4.861,4.861V25.915a4.861,4.861,0,0,1-4.462,4.845l-.4.016H7.864A4.861,4.861,0,0,1,3,25.915V7.861A4.861,4.861,0,0,1,7.864,3Zm0,4.166H7.864a.694.694,0,0,0-.694.694V25.915a.694.694,0,0,0,.694.694h12.5l.159-.018a.7.7,0,0,0,.535-.676V7.861A.694.694,0,0,0,20.363,7.166ZM48.128,3a4.861,4.861,0,0,1,4.861,4.861V14.8a4.861,4.861,0,0,1-4.861,4.861h-12.5A4.861,4.861,0,0,1,30.768,14.8V7.861A4.861,4.861,0,0,1,35.629,3Zm-12.5,4.166a.694.694,0,0,0-.694.694V14.8a.694.694,0,0,0,.694.694h12.5a.694.694,0,0,0,.694-.694V7.861a.694.694,0,0,0-.694-.694Z" transform="translate(-3.004 -3)" />
  </g>
</svg>
